<?xml version="1.0" encoding="UTF-8"?>
<svg id="Layer_1" xmlns="http://www.w3.org/2000/svg" version="1.1" viewBox="0 0 160 160">
  <!-- Generator: Adobe Illustrator 29.5.0, SVG Export Plug-In . SVG Version: 2.1.0 Build 137)  -->
  <defs>
    <style>
      .st0 {
        fill: #e2c742;
      }

      .st1 {
        fill: #cfcbc1;
      }

      .st2 {
        fill: #625a3e;
      }

      .st3 {
        fill: #585250;
      }

      .st4 {
        fill: #f5f3f2;
      }

      .st5 {
        fill: #dcc856;
      }

      .st6 {
        fill: #474140;
      }

      .st7 {
        fill: #e9e6db;
      }

      .st8 {
        fill: #a59e9e;
      }

      .st9 {
        fill: #e1cd57;
      }

      .st10 {
        fill: #ecc924;
      }

      .st11 {
        fill: #423e3c;
      }

      .st12 {
        fill: #4a453b;
      }

      .st13 {
        fill: #ada170;
      }
    </style>
  </defs>
  <path class="st11" d="M2.08,114.41c1.38-.53,1.46-2.87,2.63-3.43,1.33-.63,3.1.15,4.22-.52,1.46-.88,2.37-5.15,4.9-4.4.46.14,3.51,3.22,4.02.12.12-.68-3.56-3.87-4.29-5.62-1.36-3.31-2.02-8.64-3.17-12.11-.55-1.65-2.08-2.7-1.88-4.73s2.17-3.57,2.49-5.42c.65-3.75-2.12-7.43-.5-10.38,1.02-1.86,6.31.64,4.64-4.77-.21-.67-.99-.98-1.2-1.44-.84-1.77,2.2-16.26,2.35-19.74.19-4.2-1.01-16.03,1.34-19.23.55-.75,1.68-.9,2.01-1.7.84-2.02-.28-4.14,1.15-6.19.61-.88,6.04-4.3,7.1-4.52,1.13-.24,4.56,1.21,5.47,1.95,1.1.89,1.09,2.01,1.94,2.8,2.1,1.97,7.39,2.8,10.13,3.56,2.67,1.85,20.85,8.1,21.37,9.71.28.85.02,1.92.08,2.82,3.84-.52,6.25-2.13,9.98.28,4.2,2.73,2.69,5.71,4.11,9.06.54,1.28,3.24,3.96,4.24,5.77,1.14,2.05,1.83,4.12,2.72,6.27.83.58,11.19-2.46,13.45-2.46s11.75,1.83,13.57,2.8c5.1,2.7.87,12.23,3.01,13.85,1.48,1.12,16.17,2.48,19.91,3.8,1.53.54,3.8,1.65,3.8,3.57v20.28h-7.37c.97,1.51,2.84,1.69,4.23,2.88,3.17,2.73,3.1,6.52,2.09,10.29,2.2.27,4.39-2.6,6.47-2.03,1.68.46,3.66,4.5,5.14,5.44,2.16,1.37,4.29,0,5.14,3.82.86,3.82.61,27.48-.03,31.89-.77,5.29-4.39,9.23-9.35,10.93h-3.69c-.52-.94-1.48-.86-2.35-1.07-41.53-10.16-85.96-9.89-127.26,1.07h-3.69c-4.86-2.49-7.16-6.03-8.96-11.07v-32.13h0,0ZM30.01,45.93c.3-4.02,2.83-15.3,2-18.07-.27-.89-1.36-1.04-1.52-2.73-.3-3.17,2.04-3.9,2.12-5.24.03-.55-.83-3.54-1.13-4.14-2.11-4.12-10.85,2.08-7.84,6.16,1.99,2.7,1.52-4.39,3.73-3.9-.65,5.79-1.32,11.61-2.1,17.38l-1.05-1.58c0-1.58,0-3.16,0-4.74l-1.06,1.58c-1.32-.62-.74-3.78-2.5-1.2l-3.15,30.46c.28,1.1,4.27.95,4.55.7.84-.71,1.5-16.44,1.64-18.91.23-.18,1.03-.43,1.05-.52,2.92.94,4.76,4.44,4.22,7.37-.39,2.12-4.74,4.64-4.74,5.01v26.08c.76.12.77-.93.9-1.47,1.93-7.75,3.44-20.87,4.37-29.09.06-.52-.03-1.06,0-1.58.7-.25.48-1.01.52-1.58h0s0,0,0,0h0ZM63.73,30.65c.29-.29-.03-1.86-.86-2.03-2.33-.72-17.29-8.55-18.1-7.98-.13.09-.77,2.84-.5,3.13,2.76.15,18.35,7.99,19.46,6.88h0,0ZM22.09,23.27c-.14-.09-.49.06-.76,0-1.26,1.08-2.56,2.37-2.38,4.2,1.08.41,1.87-.87,2.47-.96.65-.1,1.25.86,2.03.98,2.67.39,2.47-4.26-.03-3.72-.38.08-.08,1.28-.52,1.07-.61-.29-.73-1.52-.81-1.57h0ZM76.37,41.71c1.11-.92-5.28-4.51-5.96-4.84l-35.13-12.54c-1.13,1.03,7.89,5.87,1.05,6.85l.54.77c8.98,4.55,21.52,7.21,30.05,12.1,2.03,1.17,2.09,2.21,3.4,3.98l.26-3.4c.81-2.5,3.35-3.22,5.79-2.92h0ZM68.47,91.23c-.7-.09-3.38-.28-3.62-.59-.26-.34.1-1.55-.17-2.18-.37-.87-1.25-1.15-1.47-2.24-.25-1.27-.17-8.77.27-9.73.99-2.19,6.14-2.53,6.04-2.9l-9.03-23.11-2.19-2.02c-3.33-.59-21.12-9.85-22.71-9.36-.39.12-.64.48-.73.88l-6.45,38.33.29,1.34,11.85-2.12c-.12,3.49.27,7.45,2.91,10.01,1.31,1.27,3.67,2.06,5,3.43.79.82,2.06,3.73,2.95,3.93.81.17,1.6-1.36,2.36-1.78,3.42-1.92,10.65-.24,14.71-.83.7-.1,1.45-.22,1.58-1.05-.52-.06-1.07.06-1.58,0h0,0ZM84.79,55.41c.69-.94-1.4-5.51-2-6.68-.39-.75-4.35-6.96-5.37-5.95,2.2,2.22.08,3.93.13,5.43.14,3.91,3.78,6.39,7.25,7.21h0ZM73.2,72.8c.17-3.42,1.27-8.32.29-11.61-.44-1.49-7.46-10.22-8.71-8.93l8.42,20.54h0ZM110.09,61.73v9.22c0,1.05-11.42,9.7-12.12,12.11-.01.56,10.01.97,11.2.67s4.81-3.64,5.26-4.75c.84-2.06.66-17.53.42-20.7-.05-.69-.17-2.41-.67-2.77-1.07-.77-13.18-3.22-13.59.41l9.48,1.59c-2.13,2.85-5.15,5.45-7.37,8.16-.49.59-1.28.85-1.05,1.84,1.23,1.13,6.48-5.84,8.43-5.79h0s0,0,0,0ZM83.22,72.53c-.3,3.47.23,7.3,0,10.8h1.58v-9.22c0-4.46,4.76-6.13,7.9-8.17-.41,5.11-2.22,10.97-1.58,16.08.09.72.37,1.63,1.05.79.52-9.71,2.86-19.09,5.27-28.45-.35-.33-8.71,1.2-9.35,1.71-1.47,1.17-4.67,14.08-4.87,16.46h0s0,0,0,0h0ZM130.11,73.32c-.01-.52.03-1.06,0-1.58l-12.13-1.31c1.52,3.75,6.63,3.29,10.02,3.95.84.69-.06.96-.78,1.05-2.37.3-4.81-.14-7.12-.52.57,3.27,5.3,2.76,7.9,3.16.89.67-.06.95-.78,1.05-1.39.19-7.61-1.16-6.86.53.8,1.81,6.27,2.04,8.17,2.11-1.29,2.06-4.8.84-6.72.65-.78-.08-1.37-.56-1.18.66,2.48,2.35,6.28,2.04,9.48,2.38.21.02.81-.55,1.05-.52,1.92.15,4.88,1.84,7.37,1.05v-10.8c0-1.85-5.29-2.88-6.63-2.68-.54.08-.59.75-.74.84-.17.1-.75-.07-1.05,0h0s0,0,0,0ZM80.06,83.33c0-4.76,1.25-7.14-4.75-6.33v6.33h4.75ZM72.16,78.06h-5.8v6.33h5.8v-6.33ZM16.96,81.36c-1.99,2.01.5,5.37,3.03,3.82,2.73-1.66-.74-6.14-3.03-3.82ZM56.35,104.94c-.1-.12-2.11-.93-2.88-1.61-3.15-2.73-5.48-7.47-7.61-9.24-2.85-2.36-5.96-2.45-7.66-7.09-1.18-3.22.22-6.62-4.5-4.47-2.38,1.09-3.8,5.87-3.7,8.4.52,12.97,17.27,11.64,26.09,15.05.46.06.32-.99.27-1.05h0s0,0,0,0ZM28.42,83.86c-.34-.34-7.77,4.02-8.4,4.5-3.45,2.63,3.25,3.91,5.47,2.31.3-.21,3.19-6.55,2.93-6.81h0ZM138.54,92.28c.65-4.28-5.89-2.89-8.69-3.16-11.24-1.1-22.49-2.06-33.72-3.2l-12.91,1.1c.36,4.2,4.5,2.13,7.09,2.08,3.18-.06,6.35.1,9.53,0l38.7,3.18h0ZM78.48,101.77c-.54.06-8.77-.31-7.37,1.05,3.12,1.26,6.25-1.34,8.95,1.06.44-8.56,6.64-9.18,13.71-9.74-2.69-.06-16.53-1.17-17.91.27-.27.28-.12,1.42.78,1.05l5.01.52c-2.42,1.39-5.64-.91-7.91.27-1.08.56-.83,1.79-1.24,2.74-.05.1-1.74.83-.86,1.74.24.25,5.65-.12,6.85,0v1.05h0s0,0,0,0ZM66.36,94.4c-3.85-.74-7.21-.43-11.06,0-.54,2.29,3.22.06,3.69,1.57-1.05.19-6.75-.75-6.32,1.32,1.13,1.74,2.9,1.36,4.74,1.33-.25,1.4-3.18-.57-2.63,1.57.81-.36,3.45.68,3.66.52.18-.14.92-3.28,1.86-3.69l6.07-2.62h0s0,0,0,0ZM26.24,94.48c-.62-.38-2.24.05-3.08-.08.23,7.32,8.63,12.35,15.28,13.16-2.78-2.71-6.02-3.62-8.7-6.84-1.16-1.4-3.2-6.05-3.5-6.24h0s0,0,0,0ZM19.4,95.52c-.52-.32-1.85.03-2.56-.08-.34,5.8,6.26,11.39,11.59,12.11-3.22-2.56-5.65-4.72-7.66-8.4-.43-.78-1.21-3.53-1.37-3.64h0ZM130.03,106.07c.17.1.3,1.19,1.24,1.64,6.64,3.18,9.35-8.67,1.22-9.64l-22.4-.51,2.37,1.58c-6.08.83-23.3-2.65-27.81,1.02-2.26,1.84-1.3,7.01,2.52,7.42,2.59.28,3.45-.83,4.84-.95,1.13-.1,2.3,1.51,4.54.84,1.73-.52,1.37-2.8,3.77-3.09,3.33-.41,18.67-.54,21.64.03,1.65.32,1.8,2.99,3.71,3.18,1.73.17,3.2-2.19,4.38-1.51h0ZM62.14,123.9v-11.33c0-1.19-7.9-1.19-7.9,0v30.29h7.37c.26-1.52.1-11.69.52-12.12.19-.19,4.96-.16,5.33.33,1.04,1.35,4.05,11.79,4.69,11.79h8.43c-1.64-5.48-4.88-10.58-6.79-16.06l6.27-15.03h-7.64c-1.33,0-4.12,10.44-5.25,11.61-1,1.03-3.6.33-5.02.51h0,0ZM105.88,111.78h-21.6v31.09h22.12v-6.32h-14.75v-6.32h12.12c-.22-1.35.53-5.38-.5-6.09-1.7-1.18-10.11,1.42-11.57-.28-.28-.34-.3-5.74.73-5.74h13.43v-6.32h0s0,0,0,0Z"/>
  <path class="st8" d="M2.08,144.97v-30.03,30.03Z"/>
  <path class="st4" d="M62.14,123.9c1.42-.18,4.02.52,5.02-.51,1.13-1.17,3.92-11.61,5.25-11.61h7.64l-6.27,15.03c1.92,5.48,5.16,10.58,6.79,16.06h-8.43c-.64,0-3.65-10.44-4.69-11.79-.37-.48-5.14-.52-5.33-.33-.43.43-.27,10.6-.52,12.12h-7.37v-30.29c0-1.19,7.9-1.19,7.9,0v11.33h0,0Z"/>
  <path class="st4" d="M105.88,111.78v6.32h-13.43c-1.03,0-1.02,5.4-.73,5.74,1.45,1.7,9.87-.89,11.57.28,1.03.71.28,4.75.5,6.09h-12.12v6.32h14.75v6.32h-22.12v-31.09h21.6,0s0,0,0,0Z"/>
  <path class="st0" d="M130.03,106.07c-1.17-.69-2.64,1.68-4.38,1.51-1.9-.19-2.06-2.86-3.71-3.18-2.97-.57-18.31-.43-21.64-.03-2.4.3-2.04,2.57-3.77,3.09-2.23.67-3.42-.94-4.54-.84-1.39.13-2.25,1.23-4.84.95-3.82-.41-4.78-5.59-2.52-7.42,4.51-3.67,21.74-.19,27.81-1.02l-2.37-1.58,22.4.51c8.13.97,5.42,12.82-1.22,9.64-.94-.45-1.07-1.54-1.24-1.64h0ZM89.94,105.33c1.99-1.97-1.28-6.38-3.56-3.83-2.17,2.41,1.15,6.22,3.56,3.83ZM94.66,100.79c-2.46.69-1.74,5.46,1.36,4.59,2.46-.69,1.74-5.46-1.36-4.59ZM125.74,100.78c-3,.79-2.13,5.79,1.39,4.61,2.43-.82.79-5.18-1.39-4.61ZM134.19,101.37c-1.5-1.56-4.02.05-3.56,2.74.72,4.17,6.56.38,3.56-2.74Z"/>
  <path class="st10" d="M76.37,41.71c-2.43-.3-4.98.42-5.79,2.92l-.26,3.4c-1.31-1.76-1.37-2.81-3.4-3.98-8.53-4.89-21.06-7.55-30.05-12.1l-.54-.77c6.83-.98-2.18-5.82-1.05-6.85l35.13,12.54c.68.32,7.06,3.91,5.96,4.84h0Z"/>
  <path class="st7" d="M110.09,61.73c-1.95-.05-7.19,6.92-8.43,5.79-.23-.99.56-1.25,1.05-1.84,2.23-2.71,5.24-5.3,7.37-8.16l-9.48-1.59c.41-3.64,12.51-1.18,13.59-.41.5.36.61,2.08.67,2.77.23,3.17.41,18.64-.42,20.7-.45,1.11-4.11,4.46-5.26,4.75s-11.22-.1-11.2-.67c.7-2.41,12.12-11.07,12.12-12.11v-9.22h0Z"/>
  <path class="st0" d="M56.35,104.94c.06.06.19,1.11-.27,1.05-8.82-3.42-25.57-2.08-26.09-15.05-.1-2.53,1.33-7.32,3.7-8.4,4.72-2.16,3.32,1.25,4.5,4.47,1.7,4.64,4.81,4.73,7.66,7.09,2.14,1.77,4.47,6.51,7.61,9.24.78.67,2.78,1.48,2.88,1.61h0s0,0,0,0Z"/>
  <path class="st7" d="M83.22,72.53c.21-2.38,3.41-15.29,4.87-16.46.64-.51,9-2.04,9.35-1.71-2.41,9.36-4.75,18.74-5.27,28.45-.69.84-.96-.06-1.05-.79-.65-5.11,1.16-10.97,1.58-16.08-3.14,2.03-7.9,3.71-7.9,8.17v9.22h-1.58c.23-3.51-.3-7.34,0-10.8h0s0,0,0,0h0Z"/>
  <path class="st9" d="M30.01,45.93c-.7.26-.5,1.01-.52,1.58-.03.52.06,1.07,0,1.58l-.52-.52c.55-2.93-1.3-6.44-4.22-7.37.34-1.39.3-4.18.52-5.79.79-5.78,1.45-11.59,2.1-17.38-2.21-.48-1.74,6.6-3.73,3.9-3.01-4.09,5.73-10.29,7.84-6.16.3.59,1.17,3.59,1.13,4.14-.08,1.34-2.42,2.07-2.12,5.24.16,1.69,1.25,1.84,1.52,2.73.84,2.78-1.7,14.06-2,18.07h0s0,0,0,0Z"/>
  <path class="st5" d="M138.54,92.28l-38.7-3.18c-3.18.1-6.35-.06-9.53,0-2.59.05-6.73,2.11-7.09-2.08l12.91-1.1c11.23,1.14,22.49,2.1,33.72,3.2,2.8.28,9.33-1.12,8.69,3.16h0Z"/>
  <path class="st0" d="M23.69,41.71c-.14,2.46-.8,18.2-1.64,18.91-.28.24-4.27.39-4.55-.7l3.15-30.46c1.77-2.59,1.18.58,2.5,1.2l1.06-1.58c0,1.58,0,3.16,0,4.74,0,2.82-.38,5.19-.52,7.9h0s0,0,0,0ZM22.1,34.34v7.37l1.08-5.51c-.07-1.13.49-2.18-1.08-1.86h0Z"/>
  <path class="st5" d="M130.11,85.44c-3.2-.34-7.01-.03-9.48-2.38-.19-1.22.4-.73,1.18-.66,1.92.19,5.43,1.41,6.72-.65-1.9-.08-7.37-.3-8.17-2.11-.75-1.69,5.48-.34,6.86-.53.72-.1,1.67-.39.78-1.05-2.6-.41-7.34.12-7.9-3.16,2.31.38,4.75.83,7.12.52.72-.1,1.62-.36.78-1.05-3.38-.66-8.49-.21-10.02-3.95l12.13,1.31c.02.52-.02,1.06,0,1.58.12,4.02-.08,8.09,0,12.12h0s0,0,0,0h0Z"/>
  <path class="st10" d="M131.16,73.32c.14-.09.2-.76.74-.84,1.35-.2,6.63.83,6.63,2.68v10.8c-2.5.79-5.46-.9-7.37-1.05v-11.59h0Z"/>
  <path class="st1" d="M78.48,100.71c-1.2-.12-6.61.25-6.85,0-.88-.91.81-1.64.86-1.74.41-.95.16-2.18,1.24-2.74,2.26-1.17,5.49,1.12,7.91-.27l-5.01-.52c-.9.37-1.05-.77-.78-1.05,1.39-1.45,15.23-.34,17.91-.27-7.06.56-13.27,1.19-13.71,9.74-2.7-2.4-5.82.2-8.95-1.06-1.4-1.36,6.83-.99,7.37-1.05.37-.04,1.07.23,1.06-.27.17-1.12-.21-.7-1.06-.79h0Z"/>
  <path class="st5" d="M29.48,49.09c-.93,8.22-2.44,21.34-4.37,29.09-.14.54-.14,1.59-.9,1.47v-26.08c0-.36,4.35-2.89,4.74-5.01l.52.52h0Z"/>
  <path class="st7" d="M73.2,72.8l-8.42-20.54c1.26-1.29,8.27,7.44,8.71,8.93.98,3.29-.12,8.2-.29,11.61h0Z"/>
  <path class="st5" d="M63.73,30.65c-1.11,1.11-16.7-6.72-19.46-6.88-.26-.3.38-3.04.5-3.13.8-.58,15.77,7.26,18.1,7.98.83.17,1.15,1.74.86,2.03h0,0Z"/>
  <path class="st7" d="M26.24,94.48c.3.19,2.34,4.84,3.5,6.24,2.67,3.22,5.92,4.13,8.7,6.84-6.65-.81-15.05-5.85-15.28-13.16.85.14,2.46-.29,3.08.08h0s0,0,0,0Z"/>
  <path class="st10" d="M84.79,55.41c-3.47-.83-7.1-3.29-7.25-7.21-.06-1.5,2.07-3.21-.13-5.43,1.02-1,4.98,5.21,5.37,5.95.61,1.17,2.69,5.75,2,6.68h0Z"/>
  <path class="st7" d="M66.36,94.4l-6.07,2.62c-.95.41-1.68,3.56-1.86,3.69-.21.16-2.84-.88-3.66-.52-.54-2.15,2.39-.17,2.63-1.57-1.84.03-3.61.41-4.74-1.33-.43-2.07,5.27-1.12,6.32-1.32-.47-1.51-4.22.72-3.69-1.57,3.85-.43,7.21-.74,11.06,0h0s0,0,0,0Z"/>
  <path class="st7" d="M19.4,95.52c.17.1.95,2.86,1.37,3.64,2.01,3.68,4.45,5.85,7.66,8.4-5.33-.73-11.93-6.32-11.59-12.11.72.11,2.05-.25,2.56.08h0Z"/>
  <rect class="st9" x="66.36" y="78.06" width="5.8" height="6.33"/>
  <path class="st0" d="M28.42,83.86c.26.27-2.63,6.59-2.93,6.81-2.22,1.6-8.92.32-5.47-2.31.63-.48,8.07-4.84,8.4-4.5h0Z"/>
  <path class="st0" d="M80.06,83.33h-4.75v-6.33c5.99-.82,4.74,1.57,4.75,6.33Z"/>
  <path class="st5" d="M22.09,23.27c.08.05.19,1.28.81,1.57.43.21.14-.99.52-1.07,2.51-.54,2.7,4.12.03,3.72-.79-.12-1.39-1.08-2.03-.98-.59.09-1.39,1.37-2.47.96-.17-1.83,1.13-3.12,2.38-4.2.27.05.63-.1.76,0h0Z"/>
  <path class="st13" d="M16.96,81.36c2.3-2.32,5.77,2.16,3.03,3.82-2.53,1.54-5.02-1.82-3.03-3.82Z"/>
  <path class="st2" d="M131.16,73.32v11.59c-.24-.02-.85.55-1.05.52-.08-4.02.12-8.09,0-12.12.3-.07.88.1,1.05,0h0Z"/>
  <path class="st2" d="M25.27,35.39c-.22,1.62-.19,4.41-.52,5.79-.03.1-.83.35-1.05.52.15-2.71.52-5.08.52-7.9l1.05,1.58h0Z"/>
  <path class="st1" d="M68.47,91.23c.5.06,1.07-.05,1.58,0-.12.83-.88.95-1.58,1.05v-1.05h0Z"/>
  <path class="st3" d="M78.48,100.71c.84.08,1.22-.34,1.06.79.01.5-.69.23-1.06.27v-1.06h0Z"/>
  <path class="st5" d="M29.48,47.5c.03-.58-.17-1.32.52-1.58-.04.57.17,1.33-.52,1.58Z"/>
  <path class="st6" d="M144.87,73.05c-.25-1.37-2.01-3.17-2.4-4.97-1.09-4.94-1.19-9.35-2.86-14.53C128.98,20.66,93.08,3.3,60.28,13.76c-2,.64-7.74,3.61-8.97,3.69-1.01.06-6.31-1.7-6.03-2.87,39.38-23.8,91.37-1.3,101.52,43.36,2.1,9.23,2.9,24.97-.65,33.81-.34.85.06,1.28-1.29,1.06-.74-5.87,1-14.21,0-19.76h0,0Z"/>
  <path class="st3" d="M151.02,93.95c2.1-.17,3.53,4.4.4,4.68-2.93.27-3.3-4.45-.4-4.68Z"/>
  <path class="st3" d="M9.38,106.44c-1.91,1.22-4.69-1.49-2.03-2.85,2.15-1.1,3.2,2.11,2.03,2.85Z"/>
  <path class="st12" d="M89.94,105.33c-2.42,2.39-5.73-1.42-3.56-3.83,2.29-2.55,5.55,1.86,3.56,3.83Z"/>
  <path class="st12" d="M134.19,101.37c3,3.12-2.84,6.91-3.56,2.74-.47-2.7,2.05-4.31,3.56-2.74Z"/>
  <path class="st12" d="M94.66,100.79c3.1-.86,3.82,3.91,1.36,4.59-3.1.86-3.82-3.91-1.36-4.59Z"/>
  <path class="st12" d="M125.74,100.78c2.18-.57,3.82,3.78,1.39,4.61-3.51,1.19-4.39-3.82-1.39-4.61Z"/>
  <path class="st2" d="M22.1,34.34c1.57-.32,1.01.73,1.08,1.86l-1.08,5.51v-7.37h0Z"/>
</svg>